#N canvas 78 85 1618 819 12;
#X obj 64 62 oscparse;
#X obj 64 89 list trim;
#X obj 248 156 route hsv;
#X obj 434 154 route rgb;
#X obj 247 180 route h s v, f 20;
#X obj 434 181 route r g b, f 19;
#X floatatom 247 204 5 0 0 0 - - - 0;
#X floatatom 292 204 5 0 0 0 - - - 0;
#X floatatom 338 203 5 0 0 0 - - - 0;
#X floatatom 434 207 5 0 0 0 - - - 0;
#X floatatom 477 207 5 0 0 0 - - - 0;
#X floatatom 522 207 5 0 0 0 - - - 0;
#X obj 341 534 *~;
#X obj 138 781 dac~;
#X obj 53 204 route h s v, f 20;
#X floatatom 53 228 5 0 0 0 - - - 0;
#X floatatom 98 228 5 0 0 0 - - - 0;
#X floatatom 144 227 5 0 0 0 - - - 0;
#N canvas 614 415 450 300 note_fondamentale 0;
#X obj 56 28 inlet;
#X floatatom 56 93 5 0 0 0 - - - 0;
#X obj 56 63 expr int($f1 / 15) + 60 + ($f2 * 12);
#X obj 302 22 inlet transpose;
#X obj 56 123 outlet;
#X connect 0 0 2 0;
#X connect 1 0 4 0;
#X connect 2 0 1 0;
#X connect 3 0 2 1;
#X restore 633 117 pd note_fondamentale;
#X floatatom 770 92 5 0 0 0 - - - 0;
#X text 807 74 oct +/-;
#X obj 293 238 s s;
#X obj 338 239 s v;
#X obj 247 238 s h;
#X obj 438 241 s r;
#X obj 480 243 s g;
#X obj 522 243 s b;
#X obj 1314 108 r r;
#X obj 1374 106 r g;
#X obj 1436 108 r b;
#X obj 97 257 s Es;
#X obj 144 257 s Ev;
#X obj 633 145 s Note_F;
#X floatatom 1313 161 5 0 0 0 - - - 0;
#X obj 1436 160 bng 19 250 50 0 empty empty empty 0 -10 0 12 #fcfcfc #000000 #000000;
#N canvas 103 171 698 720 Mode_fondamental 0;
#X obj 29 13 inlet;
#X obj 30 42 / 36.43;
#X obj 31 70 int;
#X text 101 80 255 / 7 ≈ 36.43 donne 0 à 6;
#X obj 28 520 outlet Gamme;
#X obj 528 362 outlet nom gamme;
#X obj 526 121 select 0 1 2 3 4 5 6;
#X msg 526 149 Locrien;
#X msg 527 171 Phrygien;
#X msg 531 193 Dorien;
#X msg 530 215 Eolien;
#X msg 531 243 Mixolidien;
#X msg 538 271 Ionien;
#X msg 540 299 Lydien;
#X obj 529 334 symbol;
#X obj 22 410 list;
#X msg 89 152 0 1 3 5 6 8 10 12 13 15 17 18 20 22 24 25 27 29 30 32 34;
#X msg 91 179 0 1 3 5 7 8 10 12 13 15 17 19 20 22 24 25 27 29 31 32 34;
#X msg 92 202 0 2 3 5 7 9 10 12 14 15 17 19 21 22 24 26 27 29 31 33 34;
#X msg 97 225 0 2 3 5 7 8 10 12 14 15 17 19 20 22 24 26 27 29 31 32 34;
#X msg 98 251 0 2 4 5 7 9 10 12 14 16 17 19 21 22 24 26 28 29 31 33 34;
#X msg 100 278 0 2 4 5 7 9 11 12 14 16 17 19 21 23 24 26 28 29 31 33 35;
#X msg 101 301 0 2 4 6 7 9 11 12 14 16 18 19 21 23 24 26 28 30 31 33 35;
#X obj 209 358 array set gamme_active;
#X obj 208 404 array define gamme_active 21;
#X connect 0 0 1 0;
#X connect 1 0 2 0;
#X connect 2 0 6 0;
#X connect 6 0 7 0;
#X connect 6 0 16 0;
#X connect 6 1 8 0;
#X connect 6 1 17 0;
#X connect 6 2 9 0;
#X connect 6 2 18 0;
#X connect 6 3 10 0;
#X connect 6 3 19 0;
#X connect 6 4 11 0;
#X connect 6 4 20 0;
#X connect 6 5 12 0;
#X connect 6 5 21 0;
#X connect 6 6 13 0;
#X connect 6 6 22 0;
#X connect 7 0 14 0;
#X connect 8 0 14 0;
#X connect 9 0 14 0;
#X connect 10 0 14 0;
#X connect 11 0 14 0;
#X connect 12 0 14 0;
#X connect 13 0 14 0;
#X connect 14 0 5 0;
#X connect 15 0 4 0;
#X connect 16 0 15 0;
#X connect 16 0 23 0;
#X connect 17 0 15 0;
#X connect 17 0 23 0;
#X connect 18 0 15 0;
#X connect 18 0 23 0;
#X connect 19 0 15 0;
#X connect 19 0 23 0;
#X connect 20 0 15 0;
#X connect 20 0 23 0;
#X connect 21 0 15 0;
#X connect 21 0 23 0;
#X connect 22 0 15 0;
#X connect 22 0 23 0;
#X restore 630 212 pd Mode_fondamental;
#X symbolatom 760 248 10 0 0 0 - - - 0;
#X obj 630 246 s Mode_list;
#N canvas 846 423 882 632 Color_delta_RGB 1;
#X obj 62 125 t b f;
#X obj 107 124 t b f;
#X obj 153 123 t b f;
#X obj 76 159 f;
#X obj 125 157 f;
#X obj 171 156 f;
#X obj 167 197 pack f f f;
#X obj 59 195 pack f f f;
#X obj 59 222 unpack f f f;
#X obj 167 223 unpack f f f;
#X obj 59 271 expr abs($f1-$f4)+abs($f2-$f5)+abs($f3-$f6);
#X obj 60 81 inlet R;
#X obj 122 81 inlet G;
#X obj 187 81 inlet B;
#X obj 60 380 outlet delta;
#X text 86 329 Valeur Delta, f 13;
#X obj 204 369 outlet bang;
#X obj 203 340 change;
#X obj 203 314 >= 12;
#X connect 0 0 3 0;
#X connect 0 1 6 0;
#X connect 1 0 4 0;
#X connect 1 1 6 1;
#X connect 2 0 5 0;
#X connect 2 1 6 2;
#X connect 3 0 7 0;
#X connect 4 0 7 1;
#X connect 5 0 7 2;
#X connect 6 0 9 0;
#X connect 7 0 8 0;
#X connect 8 0 10 0;
#X connect 8 1 10 1;
#X connect 8 2 10 2;
#X connect 9 0 10 3;
#X connect 9 1 10 4;
#X connect 9 2 10 5;
#X connect 10 0 14 0;
#X connect 10 0 18 0;
#X connect 11 0 3 1;
#X connect 11 0 0 0;
#X connect 12 0 1 0;
#X connect 12 0 4 1;
#X connect 13 0 2 0;
#X connect 13 0 5 1;
#X connect 17 0 16 0;
#X connect 18 0 17 0;
#X restore 1313 135 pd Color_delta_RGB;
#N canvas 535 242 1193 573 edge_hue 0;
#X obj 191 8 inlet hue;
#X obj 61 104 f;
#X obj 46 147 expr min(abs($f1 - $f2) \, 180 - abs($f1 - $f2));
#X obj 48 304 outlet;
#X obj 201 257 outlet delta;
#X obj 49 273 select 1;
#X obj 143 40 change;
#X obj 143 66 t b f;
#X obj 51 193 change;
#X obj 51 223 >= 12;
#X connect 0 0 6 0;
#X connect 1 0 2 0;
#X connect 2 0 4 0;
#X connect 2 0 8 0;
#X connect 5 0 3 0;
#X connect 6 0 7 0;
#X connect 6 0 1 1;
#X connect 7 0 1 0;
#X connect 7 1 2 1;
#X connect 8 0 9 0;
#X connect 9 0 5 0;
#X restore 944 124 pd edge_hue;
#X f 12;
#X obj 944 98 r h;
#X obj 944 154 bng 19 250 50 0 empty empty empty 0 -10 0 12 #fcfcfc #000000 #000000;
#X obj 944 190 s hue_edge;
#X floatatom 1024 147 5 0 0 0 - - - 0;
#X obj 630 188 r Ev;
#X obj 53 258 s Eh;
#X obj 633 84 r Eh;
#X obj 602 29 bng 19 250 50 0 empty empty empty 0 -10 0 12 #fcfcfc #000000 #000000;
#X obj 602 259 bng 19 250 50 0 empty empty empty 0 -10 0 12 #fcfcfc #000000 #000000;
#X obj 866 45 bng 19 250 50 0 empty empty empty 0 -10 0 12 #fcfcfc #000000 #000000;
#X obj 864 278 bng 19 250 50 0 empty empty empty 0 -10 0 12 #fcfcfc #000000 #000000;
#X text 630 64 Note;
#X text 636 25 Definition générale;
#X text 630 167 Mode;
#X obj 922 49 bng 19 250 50 0 empty empty empty 0 -10 0 12 #fcfcfc #000000 #000000;
#X obj 923 265 bng 19 250 50 0 empty empty empty 0 -10 0 12 #fcfcfc #000000 #000000;
#X obj 1559 70 bng 19 250 50 0 empty empty empty 0 -10 0 12 #fcfcfc #000000 #000000;
#X obj 1564 282 bng 19 250 50 0 empty empty empty 0 -10 0 12 #fcfcfc #000000 #000000;
#X text 967 47 Detections;
#X text 1311 85 edges simpliste RGB;
#X obj 1438 190 s rgb_edge;
#N canvas 291 217 450 300 edge_value 0;
#X obj 142 1 inlet;
#X obj 88 90 f;
#X obj 137 115 expr abs($f1 - $f2);
#X obj 136 259 outlet;
#X obj 234 263 outlet;
#X obj 142 53 t b f;
#X obj 136 223 select 1;
#X obj 142 28 change;
#X obj 136 155 change;
#X obj 136 187 >= 12;
#X connect 0 0 7 0;
#X connect 1 0 2 0;
#X connect 2 0 4 0;
#X connect 2 0 8 0;
#X connect 5 0 1 0;
#X connect 5 1 2 1;
#X connect 6 0 3 0;
#X connect 7 0 5 0;
#X connect 7 0 1 1;
#X connect 8 0 9 0;
#X connect 9 0 6 0;
#X restore 1119 130 pd edge_value;
#X obj 1119 98 r v;
#X obj 1120 157 bng 19 250 50 0 empty empty empty 0 -10 0 12 #fcfcfc #000000 #000000;
#X floatatom 1207 156 5 0 0 0 - - - 0;
#X obj 1119 188 s value_edge;
#X obj 359 503 vline~;
#X obj 583 525 vline~;
#X obj 488 543 *~;
#X obj 733 539 osc~;
#X obj 733 508 mtof;
#X obj 841 405 vsl 19 162 0.01 1 1 0 empty empty empty 0 -9 0 12 #fcfcfc #000000 #000000 0 1;
#X obj 213 478 osc~;
#X obj 491 436 osc~;
#X floatatom 213 436 5 0 0 0 - - - 0;
#X obj 213 457 mtof;
#X obj 56 474 osc~;
#X obj 56 447 mtof;
#X obj 121 320 vsl 19 162 0.01 1 1 0 empty empty empty 0 -9 0 12 #fcfcfc #000000 #000000 0 1;
#X obj 241 80 bng 19 250 50 0 empty empty empty 0 -10 0 12 #fcfcfc #000000 #000000;
#X obj 211 376 expr ($f2 + (24 * $f1));
#X obj 491 376 expr ($f2 + (24 * $f1));
#X obj 490 402 mtof;
#N canvas 1110 56 450 466 diatone 1;
#X obj 269 47 inlet note f;
#X obj 204 405 outlet;
#X obj 189 45 inlet Es;
#X obj 367 40 inlet trig;
#N canvas 659 53 450 300 new 1;
#X obj 132 132 tabread gamme_active;
#X obj 130 15 inlet note;
#X obj 343 669 bng 19 250 50 0 empty empty empty 0 -10 0 12 #fcfcfc #000000 #000000;
#X obj 132 170 outlet;
#X floatatom 217 160 5 0 0 0 - - - 0;
#X obj 130 45 expr int($f1 * 7 / 255);
#X obj 131 70 + 2;
#X connect 0 0 3 0;
#X connect 0 0 4 0;
#X connect 1 0 5 0;
#X connect 5 0 6 0;
#X connect 6 0 0 0;
#X restore 187 101 pd new melody;
#X obj 195 284 i;
#X obj 195 313 +;
#X obj 280 219 t b b;
#X obj 197 347 - 24;
#X connect 0 0 6 1;
#X connect 2 0 4 0;
#X connect 3 0 7 0;
#X connect 4 0 5 1;
#X connect 5 0 6 0;
#X connect 6 0 8 0;
#X connect 7 1 5 0;
#X connect 8 0 1 0;
#X restore 733 404 pd diatone;
#X obj 765 344 r Note_F;
#X obj 800 370 r value_edge;
#X obj 770 45 loadbang;
#X obj 770 68 i -1;
#X obj 210 514 *~;
#X obj 489 477 *~;
#X obj 538 450 / 255;
#X obj 57 519 *~;
#N canvas 92 130 1157 300 mixer 0;
#X obj 16 22 inlet~ 1L;
#X obj 90 22 inlet~ 1R;
#X obj 165 22 inlet~ 2L;
#X obj 233 21 inlet~ 2R;
#X obj 302 22 inlet~ 3L;
#X obj 369 21 inlet~ 3R;
#X obj 441 21 inlet~ 4L;
#X obj 524 20 inlet~ 4R;
#X obj 472 262 outlet~ L;
#X obj 548 262 outlet~ R;
#X obj 471 206 clip~ -0.9 0.9;
#X obj 548 229 clip~ -0.9 0.9;
#X connect 0 0 10 0;
#X connect 1 0 11 0;
#X connect 2 0 10 0;
#X connect 3 0 11 0;
#X connect 4 0 10 0;
#X connect 5 0 11 0;
#X connect 6 0 10 0;
#X connect 7 0 11 0;
#X connect 10 0 8 0;
#X connect 11 0 9 0;
#X restore 17 700 pd mixer;
#X f 74;
#N canvas 92 130 1157 300 mixer 0;
#X obj 16 22 inlet~ 1L;
#X obj 90 22 inlet~ 1R;
#X obj 165 22 inlet~ 2L;
#X obj 233 21 inlet~ 2R;
#X obj 302 22 inlet~ 3L;
#X obj 369 21 inlet~ 3R;
#X obj 441 21 inlet~ 4L;
#X obj 524 20 inlet~ 4R;
#X obj 472 262 outlet~ L;
#X obj 548 262 outlet~ R;
#X obj 471 206 clip~ -0.9 0.9;
#X obj 548 229 clip~ -0.9 0.9;
#X connect 0 0 10 0;
#X connect 1 0 11 0;
#X connect 2 0 10 0;
#X connect 3 0 11 0;
#X connect 4 0 10 0;
#X connect 5 0 11 0;
#X connect 6 0 10 0;
#X connect 7 0 11 0;
#X connect 10 0 8 0;
#X connect 11 0 9 0;
#X restore 707 703 pd mixer;
#X f 46;
#X obj 1211 188 s value_value;
#X obj 491 348 r value_value;
#X obj 648 339 r Note_F;
#X obj 582 473 r value_edge;
#X obj 369 349 r Note_F;
#X obj 540 418 r v;
#X obj 359 452 r hue_edge;
#X obj 1026 190 s hue_value;
#X obj 211 350 r hue_value;
#X text 938 76 comment;
#X obj 151 437 r s;
#X obj 49 388 r Note_F;
#X obj 190 597 rev3~ 70 90 3000 20;
#X obj 379 401 bng 50 250 50 0 empty empty empty 0 -10 0 12 #2f004d #ffffff #ffffff;
#X obj 590 404 bng 50 250 50 0 empty empty empty 0 -10 0 12 #2f004d #ffffff #ffffff;
#X obj 750 437 bng 50 250 50 0 empty empty empty 0 -10 0 12 #2f004d #ffffff #ffffff;
#N canvas 889 684 450 300 new 0;
#X obj 131 72 tabread gamme_active;
#X obj 130 15 inlet note;
#X obj 343 669 bng 19 250 50 0 empty empty empty 0 -10 0 12 #fcfcfc #000000 #000000;
#X obj 130 45 expr int($f1 * 21 / 180);
#X obj 132 100 outlet;
#X connect 0 0 4 0;
#X connect 1 0 3 0;
#X connect 3 0 0 0;
#X restore 1001 410 pd new melody;
#X obj 1001 378 r h;
#X obj 1001 468 i;
#X obj 1001 552 osc~;
#X obj 1001 497 +;
#X obj 1040 473 r Note_F;
#X obj 1032 439 t b b;
#X obj 1001 523 mtof;
#X obj 1052 576 vline~;
#X obj 1001 600 *~;
#X floatatom 931 566 5 0 0 0 - - - 0;
#X obj 1117 416 r rgb_edge;
#X obj 53 416 - 12;
#X msg 1053 546 0 \, 0.2 0 \, 0 4000 0;
#X obj 800 651 rev3~ 100 90 3000 20;
#X obj 1126 460 bng 50 250 50 0 empty empty empty 0 -10 0 12 #2f004d #ffffff #ffffff;
#X obj 1209 401 vsl 19 162 0.01 1 1 0 empty empty empty 0 -9 0 12 #c6ffc7 #000000 #000000 0 1;
#X obj 1212 363 / 127;
#X floatatom 700 446 5 0 0 0 - - - 0;
#X floatatom 16 446 5 0 0 0 - - - 0;
#X obj 732 375 r Ev;
#X obj 895 404 vsl 19 162 0.01 1 1 0 empty empty empty 0 -9 0 12 #c6ffc7 #000000 #000000 0 1;
#X obj 898 366 / 127;
#X obj 152 466 / 360;
#X msg 359 477 0 \, 0.3 0 \, 0 10 0;
#X msg 583 500 0 \, 0.3 0 \, 0 10 0;
#X obj 199 310 f 0.8;
#X obj 201 281 loadbang;
#X obj 1144 613 *~ 0.5;
#X obj 333 112 route raw;
#X obj 335 57 route vision;
#X obj 56 121 route logic;
#X obj 55 174 route ema;
#X obj 334 84 route color;
#X obj 57 148 route color;
#X obj 64 34 netreceive -u -b 9000;
#X obj 81 744 *~ 0.8;
#X obj 438 734 *~ 0.8;
#X obj 631 723 *~ 0.8;
#X obj 773 756 *~ 0.8;
#X obj 733 575 *~ 0.2;
#X obj 61 566 *~ 0.2;
#X connect 0 0 1 0;
#X connect 0 0 79 0;
#X connect 1 0 140 0;
#X connect 1 0 141 0;
#X connect 2 0 4 0;
#X connect 3 0 5 0;
#X connect 4 0 6 0;
#X connect 4 1 7 0;
#X connect 4 2 8 0;
#X connect 5 0 9 0;
#X connect 5 1 10 0;
#X connect 5 2 11 0;
#X connect 6 0 23 0;
#X connect 7 0 21 0;
#X connect 8 0 22 0;
#X connect 9 0 24 0;
#X connect 10 0 25 0;
#X connect 11 0 26 0;
#X connect 12 0 92 4;
#X connect 12 0 92 5;
#X connect 12 0 106 0;
#X connect 12 0 106 1;
#X connect 14 0 15 0;
#X connect 14 1 16 0;
#X connect 14 2 17 0;
#X connect 15 0 45 0;
#X connect 16 0 30 0;
#X connect 17 0 31 0;
#X connect 18 0 32 0;
#X connect 19 0 18 1;
#X connect 27 0 38 0;
#X connect 28 0 38 1;
#X connect 29 0 38 2;
#X connect 34 0 60 0;
#X connect 35 0 37 0;
#X connect 35 1 36 0;
#X connect 38 0 33 0;
#X connect 38 1 34 0;
#X connect 39 0 41 0;
#X connect 39 1 43 0;
#X connect 40 0 39 0;
#X connect 41 0 42 0;
#X connect 43 0 101 0;
#X connect 44 0 35 0;
#X connect 46 0 18 0;
#X connect 47 0 48 0;
#X connect 47 0 49 0;
#X connect 48 0 50 0;
#X connect 49 0 50 0;
#X connect 54 0 55 0;
#X connect 54 0 56 0;
#X connect 55 0 57 0;
#X connect 56 0 57 0;
#X connect 61 0 63 0;
#X connect 61 1 64 0;
#X connect 62 0 61 0;
#X connect 63 0 65 0;
#X connect 64 0 94 0;
#X connect 66 0 12 1;
#X connect 67 0 68 1;
#X connect 68 0 92 6;
#X connect 68 0 92 7;
#X connect 69 0 150 0;
#X connect 70 0 69 0;
#X connect 70 0 132 0;
#X connect 71 0 150 1;
#X connect 72 0 88 0;
#X connect 73 0 89 0;
#X connect 74 0 75 0;
#X connect 75 0 72 0;
#X connect 76 0 91 0;
#X connect 77 0 76 0;
#X connect 78 0 151 1;
#X connect 80 0 74 0;
#X connect 81 0 82 0;
#X connect 82 0 73 0;
#X connect 83 0 70 0;
#X connect 83 0 128 0;
#X connect 84 0 83 1;
#X connect 85 0 83 2;
#X connect 85 0 109 0;
#X connect 86 0 87 0;
#X connect 87 0 19 0;
#X connect 88 0 12 0;
#X connect 89 0 68 0;
#X connect 90 0 89 1;
#X connect 91 0 151 0;
#X connect 92 0 146 0;
#X connect 92 1 147 0;
#X connect 93 0 148 0;
#X connect 93 1 149 0;
#X connect 95 0 81 0;
#X connect 96 0 81 1;
#X connect 97 0 108 0;
#X connect 97 0 135 0;
#X connect 98 0 80 1;
#X connect 99 0 90 0;
#X connect 100 0 134 0;
#X connect 100 0 107 0;
#X connect 102 0 80 0;
#X connect 104 0 133 0;
#X connect 105 0 122 0;
#X connect 106 0 92 2;
#X connect 106 1 92 3;
#X connect 110 0 112 1;
#X connect 111 0 110 0;
#X connect 112 0 114 0;
#X connect 113 0 138 0;
#X connect 114 0 117 0;
#X connect 114 0 127 0;
#X connect 115 0 114 1;
#X connect 116 0 123 0;
#X connect 116 1 112 0;
#X connect 117 0 113 0;
#X connect 117 0 120 0;
#X connect 118 0 119 1;
#X connect 119 0 93 4;
#X connect 119 0 93 5;
#X connect 119 0 124 0;
#X connect 119 0 124 1;
#X connect 121 0 116 0;
#X connect 121 0 125 0;
#X connect 122 0 77 0;
#X connect 122 0 129 0;
#X connect 123 0 118 0;
#X connect 124 0 93 2;
#X connect 124 1 93 3;
#X connect 127 0 126 0;
#X connect 130 0 83 0;
#X connect 132 0 131 0;
#X connect 133 0 88 1;
#X connect 133 0 91 1;
#X connect 134 0 66 0;
#X connect 135 0 67 0;
#X connect 136 0 78 0;
#X connect 137 0 136 0;
#X connect 138 0 119 0;
#X connect 139 0 3 0;
#X connect 139 0 2 0;
#X connect 140 0 143 0;
#X connect 141 0 144 0;
#X connect 142 0 14 0;
#X connect 143 0 139 0;
#X connect 144 0 142 0;
#X connect 145 0 0 0;
#X connect 146 0 13 0;
#X connect 147 0 13 1;
#X connect 148 0 13 0;
#X connect 149 0 13 1;
#X connect 150 0 93 0;
#X connect 150 0 93 1;
#X connect 151 0 92 0;
#X connect 151 0 92 1;
