#N canvas 801 389 450 300 12;
#X obj 134 212 dac~;
#X obj 75 63 metro 1000;
#X obj 76 121 vline~;
#X obj 135 151 *~;
#X obj 74 35 i 1;
#X obj 74 4 loadbang;
#X obj 226 90 osc~ 440;
#X obj 159 6 bng 19 250 50 0 empty empty empty 0 -10 0 12 #fcfcfc #000000 #000000;
#X msg 75 90 0 \, 1 10 \, 0 500 5;
#X connect 1 0 8 0;
#X connect 2 0 3 0;
#X connect 3 0 0 0;
#X connect 3 0 0 1;
#X connect 4 0 1 0;
#X connect 5 0 4 0;
#X connect 6 0 3 1;
#X connect 7 0 4 0;
#X connect 8 0 2 0;
